<svg viewBox="0 0 800 600" xmlns="http://www.w3.org/2000/svg">
  <!-- Header -->
  <rect width="800" height="60" fill="white" stroke="#ddd" stroke-width="1"/>
  <text x="30" y="37" font-size="18" font-weight="bold" fill="#333">CloudHub</text>
  <text x="550" y="37" font-size="13" fill="#333">Возможности</text>
  <text x="680" y="37" font-size="13" fill="#333">Цены</text>
  <rect x="720" y="18" width="60" height="24" rx="4" fill="#4facfe"/>
  <text x="750" y="35" font-size="12" fill="white" text-anchor="middle" font-weight="600">Вход</text>
  
  <!-- Banner -->
  <rect y="60" width="800" height="140" fill="linear-gradient(135deg, #4facfe, #00f2fe)"/>
  <text x="400" y="155" font-size="40" font-weight="bold" fill="white" text-anchor="middle">CloudHub</text>
  <text x="400" y="185" font-size="14" fill="white" opacity="0.9" text-anchor="middle">Облачное хранилище для команды</text>
  
  <!-- Features -->
  <text x="30" y="240" font-size="14" font-weight="bold" fill="#333">Основные функции</text>
  
  <!-- Feature 1 -->
  <rect x="20" y="260" width="240" height="300" fill="white" stroke="#e0e0e0" stroke-width="1" rx="8"/>
  <circle cx="60" cy="305" r="32" fill="#4facfe" opacity="0.1"/>
  <text x="60" y="320" font-size="36" text-anchor="middle">☁️</text>
  <text x="140" y="370" font-size="13" font-weight="bold" fill="#333">Облачное хранилище</text>
  <text x="140" y="395" font-size="10" fill="#666" text-anchor="middle" width="80">До 1TB данных</text>
  <text x="140" y="415" font-size="10" fill="#666" text-anchor="middle" width="80">Безопасное хранение</text>
  <text x="140" y="435" font-size="9" fill="#999">Доступ с любого устройства</text>
  
  <!-- Feature 2 -->
  <rect x="280" y="260" width="240" height="300" fill="white" stroke="#e0e0e0" stroke-width="1" rx="8"/>
  <circle cx="320" cy="305" r="32" fill="#4facfe" opacity="0.1"/>
  <text x="320" y="320" font-size="36" text-anchor="middle">👥</text>
  <text x="400" y="370" font-size="13" font-weight="bold" fill="#333">Совместная работа</text>
  <text x="400" y="395" font-size="10" fill="#666" text-anchor="middle" width="80">Работайте в команде</text>
  <text x="400" y="415" font-size="10" fill="#666" text-anchor="middle" width="80">В реальном времени</text>
  <text x="400" y="435" font-size="9" fill="#999">Комментарии и версии</text>
  
  <!-- Feature 3 -->
  <rect x="540" y="260" width="240" height="300" fill="white" stroke="#e0e0e0" stroke-width="1" rx="8"/>
  <circle cx="580" cy="305" r="32" fill="#4facfe" opacity="0.1"/>
  <text x="580" y="320" font-size="36" text-anchor="middle">🔒</text>
  <text x="660" y="370" font-size="13" font-weight="bold" fill="#333">Безопасность</text>
  <text x="660" y="395" font-size="10" fill="#666" text-anchor="middle" width="80">Шифрование AES-256</text>
  <text x="660" y="415" font-size="10" fill="#666" text-anchor="middle" width="80">2FA защита</text>
  <text x="660" y="435" font-size="9" fill="#999">Регулярные резервные копии</text>
</svg>