<svg viewBox="0 0 800 600" xmlns="http://www.w3.org/2000/svg">
  <!-- Header -->
  <rect width="800" height="60" fill="white" stroke="#ddd" stroke-width="1"/>
  <rect x="20" y="15" width="100" height="30" rx="5" fill="#667eea"/>
  <text x="70" y="37" font-size="16" font-weight="bold" fill="white" text-anchor="middle">TechStart</text>
  <text x="150" y="37" font-size="13" fill="#333">Решения</text>
  <text x="230" y="37" font-size="13" fill="#333">Цены</text>
  <text x="290" y="37" font-size="13" fill="#333">О нас</text>
  <rect x="680" y="18" width="100" height="24" rx="4" fill="#667eea"/>
  <text x="730" y="35" font-size="12" fill="white" text-anchor="middle" font-weight="600">Начать</text>
  
  <!-- Hero -->
  <rect y="60" width="800" height="250" fill="#f8f9ff"/>
  <text x="400" y="160" font-size="42" font-weight="bold" fill="#333" text-anchor="middle">Решения для вашего бизнеса</text>
  <text x="400" y="200" font-size="16" fill="#666" text-anchor="middle">Мы помогаем компаниям масштабироваться с помощью технологий</text>
  <rect x="250" y="230" width="300" height="45" rx="6" fill="#667eea"/>
  <text x="400" y="261" font-size="15" fill="white" text-anchor="middle" font-weight="600">Начать бесплатно</text>
  
  <!-- Features -->
  <text x="30" y="330" font-size="18" font-weight="bold" fill="#333">Возможности</text>
  
  <rect x="30" y="350" width="230" height="120" fill="white" stroke="#e0e0e0" stroke-width="1" rx="8"/>
  <circle cx="60" cy="380" r="18" fill="#667eea" opacity="0.1"/>
  <text x="60" y="388" font-size="20" text-anchor="middle">⚡</text>
  <text x="95" y="380" font-size="13" font-weight="bold" fill="#333">Быстрая загрузка</text>
  <text x="95" y="400" font-size="11" fill="#666">Оптимизированно для скорости</text>
  <text x="95" y="420" font-size="11" fill="#999">Время загрузки &lt; 1 сек</text>
  
  <rect x="290" y="350" width="230" height="120" fill="white" stroke="#e0e0e0" stroke-width="1" rx="8"/>
  <circle cx="320" cy="380" r="18" fill="#667eea" opacity="0.1"/>
  <text x="320" y="388" font-size="20" text-anchor="middle">🔒</text>
  <text x="355" y="380" font-size="13" font-weight="bold" fill="#333">Безопасность</text>
  <text x="355" y="400" font-size="11" fill="#666">Шифрование уровня банка</text>
  <text x="355" y="420" font-size="11" fill="#999">SSL 256-bit</text>
  
  <rect x="550" y="350" width="230" height="120" fill="white" stroke="#e0e0e0" stroke-width="1" rx="8"/>
  <circle cx="580" cy="380" r="18" fill="#667eea" opacity="0.1"/>
  <text x="580" y="388" font-size="20" text-anchor="middle">💬</text>
  <text x="615" y="380" font-size="13" font-weight="bold" fill="#333">Поддержка</text>
  <text x="615" y="400" font-size="11" fill="#666">Круглосуточная помощь</text>
  <text x="615" y="420" font-size="11" fill="#999">24/7</text>
</svg>