<svg viewBox="0 0 800 600" xmlns="http://www.w3.org/2000/svg">
  <!-- Header -->
  <rect width="800" height="60" fill="white" stroke="#ddd" stroke-width="1"/>
  <text x="30" y="37" font-size="18" font-weight="bold" fill="#333">ProConsult</text>
  <text x="550" y="37" font-size="13" fill="#333">Услуги</text>
  <text x="640" y="37" font-size="13" fill="#333">Клиенты</text>
  <rect x="680" y="18" width="100" height="24" rx="4" fill="#ff6a88"/>
  <text x="730" y="35" font-size="12" fill="white" text-anchor="middle" font-weight="600">Контакт</text>
  
  <!-- Hero -->
  <rect y="60" width="800" height="160" fill="linear-gradient(135deg, #ff9a56, #ff6a88)"/>
  <text x="400" y="140" font-size="40" font-weight="bold" fill="white" text-anchor="middle">Консультирование</text>
  <text x="400" y="170" font-size="14" fill="white" opacity="0.9" text-anchor="middle">Профессиональные бизнес-решения</text>
  
  <!-- Services -->
  <text x="30" y="260" font-size="14" font-weight="bold" fill="#333">Наши услуги</text>
  
  <!-- Service 1 -->
  <rect x="20" y="280" width="240" height="280" fill="white" stroke="#e0e0e0" stroke-width="1" rx="8"/>
  <circle cx="60" cy="320" r="28" fill="#ff9a56" opacity="0.2"/>
  <text x="60" y="333" font-size="32" text-anchor="middle">📊</text>
  <text x="140" y="360" font-size="13" font-weight="bold" fill="#333">Анализ бизнеса</text>
  <text x="140" y="385" font-size="10" fill="#666" width="100">Глубокий анализ вашего бизнеса и выявление</text>
  <text x="140" y="400" font-size="10" fill="#666" width="100">возможностей для роста</text>
  
  <!-- Service 2 -->
  <rect x="280" y="280" width="240" height="280" fill="white" stroke="#e0e0e0" stroke-width="1" rx="8"/>
  <circle cx="320" cy="320" r="28" fill="#ff9a56" opacity="0.2"/>
  <text x="320" y="333" font-size="32" text-anchor="middle">💼</text>
  <text x="400" y="360" font-size="13" font-weight="bold" fill="#333">Стратегия</text>
  <text x="400" y="385" font-size="10" fill="#666" width="100">Разработка долгосрочной бизнес-</text>
  <text x="400" y="400" font-size="10" fill="#666" width="100">стратегии для компании</text>
  
  <!-- Service 3 -->
  <rect x="540" y="280" width="240" height="280" fill="white" stroke="#e0e0e0" stroke-width="1" rx="8"/>
  <circle cx="580" cy="320" r="28" fill="#ff9a56" opacity="0.2"/>
  <text x="580" y="333" font-size="32" text-anchor="middle">🎯</text>
  <text x="660" y="360" font-size="13" font-weight="bold" fill="#333">Внедрение</text>
  <text x="660" y="385" font-size="10" fill="#666" width="100">Помощь в реализации стратегии и</text>
  <text x="660" y="400" font-size="10" fill="#666" width="100">контроль результатов</text>
</svg>