<svg viewBox="0 0 800 600" xmlns="http://www.w3.org/2000/svg">
  <!-- Header -->
  <rect width="800" height="60" fill="white" stroke="#ddd" stroke-width="1"/>
  <text x="30" y="37" font-size="18" font-weight="bold" fill="#00bcd4">ShopHub</text>
  <text x="550" y="37" font-size="13" fill="#333">Каталог</text>
  <text x="640" y="37" font-size="13" fill="#333">Корзина</text>
  <rect x="680" y="18" width="100" height="24" rx="4" fill="#00bcd4"/>
  <text x="730" y="35" font-size="12" fill="white" text-anchor="middle" font-weight="600">Войти</text>
  
  <!-- Banner -->
  <rect y="60" width="800" height="150" fill="linear-gradient(135deg, #4facfe, #00f2fe)"/>
  <text x="400" y="135" font-size="36" font-weight="bold" fill="white" text-anchor="middle">Интернет-магазин</text>
  
  <!-- Products Grid -->
  <text x="30" y="240" font-size="14" font-weight="bold" fill="#333">Популярные товары</text>
  
  <!-- Product 1 -->
  <rect x="20" y="260" width="180" height="300" fill="white" stroke="#e0e0e0" stroke-width="1" rx="8"/>
  <rect x="20" y="260" width="180" height="140" fill="#ddd" rx="8"/>
  <text x="110" y="420" font-size="12" font-weight="bold" fill="#333" text-anchor="middle">Товар 1</text>
  <text x="110" y="440" font-size="10" fill="#666" text-anchor="middle">Описание товара</text>
  <text x="110" y="460" font-size="14" font-weight="bold" fill="#00bcd4" text-anchor="middle">2 999 ₽</text>
  <text x="110" y="480" font-size="10" fill="#999" text-anchor="middle">⭐⭐⭐⭐⭐ (45)</text>
  <rect x="30" y="500" width="160" height="30" fill="#00bcd4" rx="4"/>
  <text x="110" y="521" font-size="12" fill="white" text-anchor="middle" font-weight="600">В корзину</text>
  
  <!-- Product 2 -->
  <rect x="220" y="260" width="180" height="300" fill="white" stroke="#e0e0e0" stroke-width="1" rx="8"/>
  <rect x="220" y="260" width="180" height="140" fill="#bbb" rx="8"/>
  <text x="310" y="420" font-size="12" font-weight="bold" fill="#333" text-anchor="middle">Товар 2</text>
  <text x="310" y="440" font-size="10" fill="#666" text-anchor="middle">Описание товара</text>
  <text x="310" y="460" font-size="14" font-weight="bold" fill="#00bcd4" text-anchor="middle">3 499 ₽</text>
  <text x="310" y="480" font-size="10" fill="#999" text-anchor="middle">⭐⭐⭐⭐⭐ (32)</text>
  <rect x="230" y="500" width="160" height="30" fill="#00bcd4" rx="4"/>
  <text x="310" y="521" font-size="12" fill="white" text-anchor="middle" font-weight="600">В корзину</text>
  
  <!-- Product 3 -->
  <rect x="420" y="260" width="180" height="300" fill="white" stroke="#e0e0e0" stroke-width="1" rx="8"/>
  <rect x="420" y="260" width="180" height="140" fill="#aaa" rx="8"/>
  <text x="510" y="420" font-size="12" font-weight="bold" fill="#333" text-anchor="middle">Товар 3</text>
  <text x="510" y="440" font-size="10" fill="#666" text-anchor="middle">Описание товара</text>
  <text x="510" y="460" font-size="14" font-weight="bold" fill="#00bcd4" text-anchor="middle">1 999 ₽</text>
  <text x="510" y="480" font-size="10" fill="#999" text-anchor="middle">⭐⭐⭐⭐⭐ (58)</text>
  <rect x="430" y="500" width="160" height="30" fill="#00bcd4" rx="4"/>
  <text x="510" y="521" font-size="12" fill="white" text-anchor="middle" font-weight="600">В корзину</text>
  
  <!-- Product 4 -->
  <rect x="620" y="260" width="160" height="300" fill="white" stroke="#e0e0e0" stroke-width="1" rx="8"/>
  <rect x="620" y="260" width="160" height="140" fill="#999" rx="8"/>
  <text x="700" y="420" font-size="12" font-weight="bold" fill="#333" text-anchor="middle">Товар 4</text>
  <text x="700" y="440" font-size="10" fill="#666" text-anchor="middle">Описание</text>
  <text x="700" y="460" font-size="14" font-weight="bold" fill="#00bcd4" text-anchor="middle">4 499 ₽</text>
  <text x="700" y="480" font-size="10" fill="#999" text-anchor="middle">⭐⭐⭐⭐⭐ (21)</text>
  <rect x="630" y="500" width="140" height="30" fill="#00bcd4" rx="4"/>
  <text x="700" y="521" font-size="12" fill="white" text-anchor="middle" font-weight="600">В корзину</text>
</svg>